<?xml version="1.0" standalone="no"?>
<!DOCTYPE svg PUBLIC "-//W3C//DTD SVG 20010904//EN"
 "http://www.w3.org/TR/2001/REC-SVG-20010904/DTD/svg10.dtd">
<svg version="1.0" xmlns="http://www.w3.org/2000/svg"
 width="550.000000pt" height="200.000000pt" viewBox="0 0 550.000000 200.000000"
 preserveAspectRatio="xMidYMid meet">

<g transform="translate(0.000000,200.000000) scale(0.100000,-0.100000)"
fill="#000000" stroke="none">
<path d="M17 1992 c-2 -4 -7 -18 -10 -32 -5 -22 7 -40 86 -126 51 -56 117
-131 147 -168 36 -44 75 -79 117 -103 l63 -37 26 -87 c23 -76 35 -98 103 -181
42 -51 109 -145 148 -208 58 -92 97 -140 201 -243 l129 -128 113 -25 c63 -13
120 -22 127 -20 8 4 12 21 11 48 -1 41 -1 41 -5 8 -3 -19 -8 -38 -12 -43 -4
-4 -58 4 -121 17 l-113 25 -124 123 c-99 98 -138 146 -195 238 -39 63 -107
159 -149 212 -69 86 -81 108 -104 185 l-27 88 -59 33 c-42 23 -80 57 -127 113
-37 44 -102 116 -144 162 -58 62 -77 89 -78 110 0 25 3 27 23 21 12 -3 27 -10
32 -14 6 -4 35 -11 65 -15 103 -13 311 -158 443 -308 51 -58 78 -77 242 -168
131 -73 185 -109 185 -121 0 -10 -9 -41 -20 -70 -11 -28 -19 -52 -17 -53 1 -1
25 -10 52 -20 63 -22 78 -35 114 -100 16 -29 57 -78 90 -110 60 -57 61 -59 63
-114 l1 -56 6 50 7 50 -65 67 c-35 36 -80 95 -100 130 -33 56 -43 65 -91 85
-30 12 -56 25 -57 30 -2 5 6 35 17 68 16 46 17 60 8 67 -7 4 -87 49 -178 99
-152 85 -174 100 -280 203 -137 132 -180 168 -280 228 -52 31 -92 47 -129 52
-30 4 -71 16 -92 26 -21 11 -40 17 -42 12z"/>
<path d="M2474 1826 c-2 -6 -15 -44 -29 -85 -19 -56 -91 -199 -121 -240 -2 -2
-30 -9 -63 -16 -51 -10 -70 -10 -126 3 l-65 16 -27 -26 c-22 -21 -48 -30 -118
-42 l-90 -16 -65 65 -66 65 -32 -97 -32 -98 18 -56 c14 -48 26 -64 69 -98 39
-30 53 -49 58 -73 9 -55 25 -163 25 -170 0 -8 178 -68 201 -68 8 0 42 11 75
24 l60 24 87 -26 c80 -25 88 -29 98 -59 6 -18 15 -33 20 -33 5 0 40 14 77 30
62 28 72 37 104 92 36 60 36 60 22 112 -8 28 -14 51 -14 52 0 0 36 31 79 67
l79 66 7 79 c9 106 11 108 77 94 47 -9 55 -8 72 8 18 18 17 19 -48 66 -55 40
-68 55 -77 88 -6 23 -18 67 -27 99 -16 59 -15 62 13 129 8 20 -14 25 -148 31
-61 3 -90 1 -93 -7z m219 -12 c13 -5 13 -10 -3 -37 -18 -32 -18 -33 12 -142
l30 -110 59 -40 c32 -22 59 -46 59 -52 0 -15 -47 -17 -102 -4 -21 5 -38 6 -38
2 -1 -13 -20 -147 -26 -172 -4 -22 -90 -103 -147 -141 -7 -4 -5 -25 5 -61 l16
-56 -34 -55 c-29 -46 -45 -60 -99 -85 -36 -17 -67 -31 -70 -31 -3 0 -11 15
-18 33 -13 30 -22 35 -104 59 l-90 27 -67 -26 -67 -27 -90 29 c-50 16 -93 33
-96 37 -2 5 -11 52 -19 106 -8 53 -18 99 -22 103 -4 3 -28 23 -54 43 -49 39
-68 79 -68 142 0 30 36 152 50 167 4 5 32 -19 62 -53 l55 -60 99 15 c85 14
102 20 120 43 l22 26 66 -16 c65 -15 77 -15 173 7 14 3 38 33 69 87 27 46 52
85 56 86 4 2 8 11 8 21 0 9 9 45 21 79 l21 62 98 0 c54 0 105 -3 113 -6z"/>
<path d="M61 1656 c-14 -17 3 -29 57 -39 41 -8 41 2 -3 31 -41 26 -39 26 -54
8z m44 -16 c3 -5 -1 -10 -9 -10 -8 0 -18 5 -21 10 -3 6 1 10 9 10 8 0 18 -4
21 -10z"/>
<path d="M3889 1509 l-25 -61 18 -86 c14 -63 28 -98 51 -129 18 -23 35 -43 40
-43 13 0 8 38 -13 92 -11 29 -20 54 -20 56 0 1 25 2 55 2 53 0 55 1 45 20 -6
12 -22 26 -35 32 l-24 11 19 25 c11 13 20 35 20 48 0 22 -3 24 -39 18 l-38 -6
-7 41 c-3 23 -10 41 -14 41 -5 0 -20 -27 -33 -61z m41 9 c0 -39 13 -50 44 -38
36 13 36 13 36 -10 0 -12 -11 -32 -24 -45 l-24 -24 36 -23 37 -23 -52 -3 c-29
-2 -53 -6 -53 -10 0 -4 9 -31 20 -60 11 -29 20 -58 20 -64 0 -20 -58 55 -64
82 -28 132 -30 158 -11 200 20 44 35 52 35 18z"/>
<path d="M3505 1469 l-50 -40 -95 5 c-52 3 -137 12 -187 21 l-93 16 -59 -46
c-49 -39 -61 -54 -70 -92 -15 -58 -8 -67 8 -11 15 50 31 70 87 108 l40 29 125
-20 c68 -10 151 -19 185 -19 55 0 65 4 114 40 50 37 80 47 82 27 1 -18 -79
-107 -102 -114 -28 -9 -95 -8 -311 2 l-145 7 -31 -47 -31 -47 32 -57 c18 -31
35 -64 39 -74 4 -10 10 -17 15 -15 76 39 134 63 180 74 67 16 119 18 126 5 7
-12 -87 -75 -159 -106 l-55 -25 46 -62 c42 -57 114 -193 114 -216 0 -8 -107
-62 -124 -62 -3 0 -6 17 -6 38 -1 30 -6 41 -35 62 -18 14 -38 34 -44 45 -8 16
-10 17 -10 3 -1 -9 17 -31 39 -48 36 -29 40 -36 40 -77 0 -24 4 -43 8 -41 84
35 142 65 142 74 0 28 -57 146 -102 209 l-49 70 53 25 c62 29 168 99 168 111
0 16 -73 21 -133 9 -34 -7 -92 -26 -130 -43 -37 -16 -69 -28 -70 -26 -14 17
-67 119 -67 128 0 7 12 28 26 47 l26 34 100 0 c54 0 130 -5 167 -11 40 -7 96
-9 135 -4 l66 7 50 61 c28 34 49 66 47 72 -8 25 -54 13 -102 -26z"/>
<path d="M241 1491 c-16 -10 -10 -23 37 -76 35 -39 46 -38 57 6 5 21 0 30 -29
52 -38 29 -44 31 -65 18z m59 -29 c22 -19 29 -32 25 -45 -4 -9 -10 -17 -14
-17 -12 0 -71 77 -64 84 11 11 22 6 53 -22z"/>
<path d="M4232 1312 c-21 -7 -22 -8 -7 -29 16 -23 48 -29 93 -17 l23 7 -22 23
c-22 24 -44 28 -87 16z m77 -15 c15 -19 4 -27 -35 -27 -32 0 -54 24 -31 34 24
9 55 6 66 -7z"/>
<path d="M4426 1249 c-41 -19 -95 -34 -134 -37 l-65 -7 41 -37 c30 -27 51 -38
74 -38 25 0 41 -10 75 -46 43 -46 43 -46 99 -42 42 4 57 1 61 -9 8 -20 -1 -26
-60 -34 -28 -4 -65 -12 -81 -18 l-28 -11 44 -34 c25 -19 52 -52 63 -75 l18
-42 32 31 c17 16 36 30 43 30 6 0 36 -15 65 -34 33 -21 88 -43 138 -56 46 -11
129 -39 184 -61 l100 -39 58 -90 c31 -50 57 -94 57 -98 0 -5 -25 -48 -55 -96
-31 -49 -53 -91 -50 -94 3 -3 46 4 97 15 l91 21 99 -64 c54 -35 101 -64 103
-64 3 0 5 175 5 389 0 361 -1 389 -17 396 -10 3 -67 24 -128 45 -60 21 -139
52 -175 68 l-64 30 -51 -43 c-27 -23 -77 -60 -110 -80 -33 -21 -79 -54 -102
-72 -27 -23 -48 -33 -60 -29 -27 9 -79 61 -94 96 -12 26 -29 41 -29 24 0 -15
55 -82 91 -111 l42 -33 31 25 c17 14 74 54 126 89 52 35 106 75 119 90 30 32
36 32 98 5 26 -12 107 -43 178 -69 l130 -47 2 -376 c2 -208 1 -377 -2 -377 -3
0 -47 27 -98 60 l-93 59 -84 -19 c-45 -11 -85 -18 -87 -16 -5 4 70 128 94 157
12 14 5 29 -49 116 l-63 100 -100 41 c-55 23 -140 51 -188 63 -59 15 -108 35
-149 61 l-61 39 -33 -32 c-19 -18 -36 -31 -38 -28 -2 2 -11 20 -19 40 -8 20
-29 45 -46 55 -50 30 -32 43 80 58 44 6 45 8 41 37 l-4 29 -63 -6 -62 -6 -33
41 c-25 31 -43 43 -71 47 -40 7 -99 38 -99 53 0 4 26 11 58 15 31 4 81 18 110
31 30 14 64 25 76 25 34 0 147 -41 153 -55 2 -7 8 -44 12 -82 7 -55 9 -59 9
-23 1 25 -2 63 -6 84 -7 38 -9 40 -74 62 -36 12 -75 25 -85 28 -10 3 -49 -9
-87 -25z"/>
<path d="M2903 1153 c-18 -65 -38 -149 -44 -186 l-13 -68 42 -42 42 -42 -11
-93 c-6 -51 -10 -95 -8 -96 2 -2 30 1 63 6 l58 10 -7 152 -7 151 36 18 c20 9
38 17 41 17 2 0 6 -15 8 -32 3 -29 4 -28 5 9 l2 42 -52 -24 c-39 -17 -53 -28
-51 -41 1 -11 5 -78 9 -150 l7 -131 -24 -6 c-33 -9 -79 -9 -79 1 0 4 5 44 10
89 l10 82 -42 39 -42 39 13 74 c8 41 27 121 43 178 16 57 27 108 26 113 -2 5
-18 -44 -35 -109z"/>
<path d="M426 1184 c-16 -12 -18 -17 -8 -39 11 -23 59 -52 69 -41 7 6 -19 75
-32 86 -6 5 -18 2 -29 -6z m39 -34 c14 -28 14 -30 -2 -30 -20 0 -47 36 -38 50
11 17 24 11 40 -20z"/>
<path d="M1221 1106 c-26 -42 -26 -46 0 -46 34 0 57 -18 64 -49 4 -21 19 -37
50 -55 24 -14 48 -26 54 -26 6 0 11 18 11 39 0 34 -5 42 -34 59 -25 15 -35 29
-40 56 -7 37 -10 40 -58 50 -22 5 -30 1 -47 -28z m98 -34 c9 -26 26 -48 41
-55 27 -14 42 -67 18 -67 -29 0 -76 40 -87 73 -10 28 -19 37 -47 44 -34 8 -34
9 -18 31 12 17 24 22 46 20 26 -3 33 -10 47 -46z"/>
<path d="M3508 1114 c-5 -4 -8 -16 -8 -26 0 -17 6 -18 73 -12 39 4 74 8 76 10
7 6 -54 26 -94 31 -22 3 -43 1 -47 -3z m77 -14 c18 -8 18 -9 -5 -9 -14 -1 -35
-4 -47 -7 -17 -5 -23 -2 -23 10 0 18 40 21 75 6z"/>
<path d="M1497 1003 c-4 -3 -7 -21 -7 -40 0 -32 1 -33 40 -33 39 0 40 1 40 34
0 26 -5 35 -22 40 -30 8 -43 7 -51 -1z m47 -9 c9 -3 16 -17 16 -30 0 -19 -5
-24 -25 -24 -27 0 -41 20 -31 45 6 16 16 18 40 9z"/>
<path d="M3950 974 c0 -4 9 -22 21 -40 21 -34 21 -34 98 -34 60 0 92 -6 139
-25 34 -14 64 -25 67 -25 8 0 -6 73 -15 84 -23 24 -310 61 -310 40z m236 -29
c67 -15 72 -18 76 -46 5 -35 -3 -36 -68 -8 -36 16 -65 21 -117 20 -72 -2 -107
13 -107 47 0 12 12 14 73 9 39 -3 104 -13 143 -22z"/>
<path d="M3814 925 c15 -14 25 -29 22 -34 -11 -18 -61 -28 -94 -19 -27 7 -33
13 -30 31 2 16 12 24 38 28 l35 6 -42 2 c-41 1 -43 0 -43 -28 0 -32 12 -45 52
-55 30 -7 98 20 98 39 0 13 -42 55 -55 55 -4 0 4 -11 19 -25z"/>
<path d="M1283 775 c0 -27 2 -38 4 -22 2 15 2 37 0 50 -2 12 -4 0 -4 -28z"/>
<path d="M3335 746 c-25 -60 -29 -91 -11 -105 13 -11 17 -8 29 22 27 64 29 76
13 99 -15 22 -16 22 -31 -16z m19 -49 c-17 -51 -41 -66 -30 -19 12 50 29 83
37 75 5 -5 2 -30 -7 -56z"/>
<path d="M3265 735 c-3 -8 -7 -22 -10 -30 -7 -23 32 -19 45 5 8 15 6 21 -10
30 -16 9 -21 8 -25 -5z m25 -14 c0 -6 -4 -13 -10 -16 -5 -3 -10 1 -10 9 0 9 5
16 10 16 6 0 10 -4 10 -9z"/>
<path d="M4696 627 c-10 -17 -27 -51 -37 -75 l-19 -43 26 -11 c22 -10 27 -8
54 23 16 19 29 41 30 49 0 24 -20 90 -28 90 -4 0 -15 -15 -26 -33z m34 -4 c0
-10 3 -27 6 -39 4 -14 -3 -31 -21 -52 -51 -61 -69 -29 -29 52 27 56 44 71 44
39z"/>
<path d="M1344 598 c-56 -9 -63 -12 -83 -48 -30 -54 -27 -60 24 -60 41 0 46
-3 58 -33 14 -32 14 -32 158 -60 79 -15 173 -30 209 -33 36 -3 109 -17 162
-30 62 -16 126 -24 180 -24 53 0 117 -9 178 -24 52 -13 96 -23 97 -22 2 1 -1
29 -5 62 l-7 59 -70 5 c-39 3 -79 10 -90 17 l-20 12 20 7 c64 23 85 35 95 55
l12 22 -92 -7 c-83 -7 -100 -5 -180 19 l-88 28 -34 -27 c-39 -30 -48 -30 -169
-15 -86 11 -89 12 -114 49 -15 21 -36 41 -48 43 -51 12 -136 15 -193 5z m203
-24 c12 -7 29 -26 39 -42 15 -27 23 -30 110 -41 132 -16 144 -15 176 16 l28
27 87 -28 c78 -26 96 -28 170 -22 66 5 81 3 77 -7 -4 -11 -34 -24 -124 -54
-27 -8 83 -43 137 -43 57 0 52 6 69 -78 5 -27 6 -27 -101 -2 -49 11 -121 20
-168 20 -55 0 -112 8 -172 24 -49 13 -126 27 -170 31 -121 10 -337 57 -346 75
-4 8 -10 23 -13 33 -4 13 -16 17 -51 17 -25 0 -45 3 -45 8 0 4 9 21 20 37 16
24 31 32 77 42 68 13 168 7 200 -13z"/>
<path d="M4343 441 c-17 -14 -23 -30 -23 -57 l0 -38 30 29 c19 19 30 39 30 57
0 33 -7 34 -37 9z m27 -12 c0 -17 -20 -49 -30 -49 -14 0 -12 34 2 48 15 15 28
15 28 1z"/>
<path d="M3728 403 c-25 -3 -42 -11 -48 -24 -10 -17 -7 -19 35 -19 59 0 91 15
74 36 -6 8 -14 13 -18 12 -3 -1 -23 -3 -43 -5z m42 -23 c-20 -13 -87 -13 -74
-1 9 9 74 19 84 13 2 -2 -2 -7 -10 -12z"/>
<path d="M4130 380 c-13 -9 -7 -14 12 -11 4 0 5 -6 2 -14 -7 -16 11 -21 20 -6
7 10 -3 41 -13 41 -3 0 -13 -5 -21 -10z"/>
<path d="M2346 341 c-16 -6 -12 -12 30 -48 l49 -41 34 30 c18 16 31 31 29 32
-33 30 -102 43 -142 27z m97 -12 c12 -7 24 -13 26 -15 7 -6 -31 -44 -44 -44
-12 0 -65 51 -65 63 0 11 59 8 83 -4z"/>
<path d="M2715 330 c-16 -11 -49 -22 -72 -26 -35 -5 -43 -11 -52 -37 -6 -16
-11 -32 -11 -33 0 -15 283 17 300 33 2 2 -2 16 -10 30 -11 19 -29 30 -65 40
-62 16 -55 16 -90 -7z m113 -11 c26 -9 49 -35 39 -45 -7 -7 -183 -34 -224 -34
-40 0 -44 2 -41 22 2 17 14 25 49 33 25 7 54 17 65 23 24 15 72 15 112 1z"/>
<path d="M3907 344 c-15 -15 -6 -24 24 -24 20 0 29 4 27 13 -5 14 -40 21 -51
11z"/>
<path d="M2526 328 c-14 -8 -46 -58 -46 -73 0 -3 20 -5 44 -5 40 0 45 3 55 31
6 17 9 35 6 39 -8 13 -41 18 -59 8z m46 -33 c-5 -30 -16 -37 -52 -33 l-32 3
22 28 c26 33 67 35 62 2z"/>
<path d="M3275 321 c-60 -18 -85 -17 -230 4 -48 7 -89 -11 -93 -42 -4 -24 10
-29 128 -38 74 -5 95 -2 265 40 104 25 99 23 85 40 -16 20 -79 18 -155 -4z
m130 -1 c20 -8 20 -9 -1 -9 -11 -1 -58 -13 -105 -27 -71 -22 -102 -26 -198
-26 -90 0 -117 4 -129 16 -38 37 24 47 173 28 52 -6 88 -6 105 0 60 23 125 31
155 18z"/>
<path d="M3500 320 c-10 -18 -8 -20 24 -20 44 0 66 9 66 26 0 24 -77 18 -90
-6z m65 0 c-28 -12 -57 -12 -50 0 3 6 21 10 38 9 27 0 29 -2 12 -9z"/>
<path d="M3533 228 c-13 -6 -25 -19 -28 -29 -5 -15 -10 -17 -24 -9 -23 12 -67
-31 -81 -80 l-9 -33 37 7 c20 3 47 6 60 6 37 0 92 67 92 113 0 39 -8 44 -47
25z m37 -28 c0 -37 -53 -100 -83 -98 -12 0 -35 -3 -51 -7 -28 -8 -29 -7 -22
21 12 45 36 67 68 60 16 -3 28 -1 28 4 0 13 37 50 50 50 6 0 10 -13 10 -30z"/>
<path d="M2871 186 l-24 -13 24 -17 c13 -9 30 -16 39 -16 8 0 32 -12 53 -26
32 -21 45 -24 78 -19 21 4 39 10 39 15 0 17 -43 60 -60 60 -9 0 -23 7 -30 15
-15 19 -86 19 -119 1z m119 -11 c7 -8 18 -15 25 -15 6 0 20 -9 31 -21 16 -17
16 -22 4 -29 -25 -16 -51 -11 -82 15 -16 14 -39 25 -51 25 -12 0 -29 5 -37 10
-13 9 -13 11 0 20 23 15 96 12 110 -5z"/>
<path d="M3348 46 c-25 -15 -34 -26 -29 -35 12 -19 71 13 71 39 0 11 -1 20 -2
19 -2 0 -20 -11 -40 -23z"/>
</g>
</svg>
